<svg id="_8680364f3102ca37abf05d78c74f38e8" data-name="8680364f3102ca37abf05d78c74f38e8" xmlns="http://www.w3.org/2000/svg" width="20.909" height="20.909" viewBox="0 0 20.909 20.909">
  <path id="Path_13887" data-name="Path 13887" d="M20.455,30.909A10.455,10.455,0,1,1,30.909,20.455,10.455,10.455,0,0,1,20.455,30.909Zm0-19.6A9.149,9.149,0,1,0,29.6,20.457a9.149,9.149,0,0,0-9.149-9.149Zm-5.33,14.464,3.548-7.1,7.1-3.548-3.548,7.094-7.1,3.55Zm6.228-6.183a1.323,1.323,0,0,0-1.811,0,1.187,1.187,0,0,0,0,1.73,1.323,1.323,0,0,0,1.811,0,1.183,1.183,0,0,0,0-1.73Z" transform="translate(-10 -10)" fill="#fd9615"/>
</svg>
