<svg id="booking-pending" xmlns="http://www.w3.org/2000/svg" width="21.795" height="20.93" viewBox="0 0 21.795 20.93">
  <path id="Path_13259" data-name="Path 13259" d="M12.1.7a.793.793,0,0,1,.858-.7.791.791,0,0,1,.858.7V3.782a.793.793,0,0,1-.858.7.791.791,0,0,1-.858-.7V.7ZM2.336,9.961c-.048,0-.092-.213-.092-.475s.039-.474.092-.474H4.677c.048,0,.092.213.092.474s-.039.475-.092.475H2.336Zm3.732,0c-.048,0-.092-.213-.092-.475s.039-.474.092-.474H8.409c.048,0,.092.213.092.474s-.039.475-.092.475H6.068Zm3.732,0c-.048,0-.092-.213-.092-.475s.037-.474.092-.474h2.341c.048,0,.092.211.092.472a7.143,7.143,0,0,0-.676.477H9.8ZM2.341,12.686c-.048,0-.092-.213-.092-.475s.039-.475.092-.475H4.683c.048,0,.092.213.092.475s-.039.475-.092.475Zm3.732,0c-.048,0-.092-.213-.092-.475s.039-.475.092-.475H8.415c.048,0,.092.213.092.475s-.039.475-.092.475ZM2.347,15.41c-.048,0-.092-.213-.092-.475s.039-.475.092-.475H4.688c.048,0,.092.213.092.475s-.039.475-.092.475Zm3.732,0c-.048,0-.092-.213-.092-.475s.039-.475.092-.475H8.42c.048,0,.092.213.092.475s-.039.475-.092.475ZM4.392.7A.792.792,0,0,1,5.25,0a.791.791,0,0,1,.858.7V3.782a.794.794,0,0,1-.858.7.791.791,0,0,1-.858-.7V.7ZM.945,6.728H17.285V3.186a.431.431,0,0,0-.126-.305.437.437,0,0,0-.305-.126H15.288a.475.475,0,0,1,0-.951h1.566a1.387,1.387,0,0,1,1.385,1.385V8.814a7,7,0,0,0-.963-.259V7.677H.945V16.85a.424.424,0,0,0,.126.305.437.437,0,0,0,.305.126H9.142a7.157,7.157,0,0,0,.333.961H1.385a1.38,1.38,0,0,1-.979-.406A1.369,1.369,0,0,1,0,16.859V3.189A1.387,1.387,0,0,1,1.385,1.8H3.058a.475.475,0,1,1,0,.951H1.385a.424.424,0,0,0-.305.126.437.437,0,0,0-.126.305V6.728ZM7.48,2.753a.475.475,0,1,1,0-.951h3.189a.475.475,0,0,1,0,.951Z" fill="#fd9615"/>
  <path id="Path_13260" data-name="Path 13260" d="M65.949,55.53a5.538,5.538,0,0,1,3.918,1.623,5.578,5.578,0,0,1,1.2,1.8,5.54,5.54,0,0,1-1.2,6.036,5.6,5.6,0,0,1-1.8,1.2,5.541,5.541,0,0,1-6.036-9.039,5.518,5.518,0,0,1,3.916-1.621Zm-.578,3.388a.653.653,0,0,1,.05-.248.685.685,0,0,1,.14-.211.611.611,0,0,1,.211-.14.646.646,0,0,1,.5,0,.646.646,0,0,1,.211.14.637.637,0,0,1,.14.211.646.646,0,0,1,.05.248v2.331l1.469.777.037.023a.651.651,0,0,1,.167.16.628.628,0,0,1,.1.218.686.686,0,0,1,.014.248.623.623,0,0,1-.08.234l-.016.027-.012.016a.646.646,0,0,1-.372.261.686.686,0,0,1-.248.014.623.623,0,0,1-.234-.08l-1.781-.952a.551.551,0,0,1-.137-.1.657.657,0,0,1-.108-.133l0-.007a.631.631,0,0,1-.094-.332h0v-2.7Z" transform="translate(-49.695 -45.681)" fill="#fd9615" fill-rule="evenodd"/>
</svg>
