<svg xmlns="http://www.w3.org/2000/svg" width="22.765" height="20.053" viewBox="0 0 22.765 20.053">
  <path id="chat-bubble" d="M9.469,17.349a8.2,8.2,0,0,0,9.189,1.568l2.848,1.112-.949-2.236c3.165-2.535,2.594-6.018.267-8.394a8.223,8.223,0,0,1-.9,2.579,9.533,9.533,0,0,1-2.614,2.981,11.583,11.583,0,0,1-3.656,1.853,13.169,13.169,0,0,1-4.18.541ZM13.838,6.674A1.238,1.238,0,1,1,12.6,7.912,1.238,1.238,0,0,1,13.838,6.674Zm-8.181,0A1.238,1.238,0,1,1,4.42,7.912,1.238,1.238,0,0,1,5.657,6.674Zm4.091,0A1.238,1.238,0,1,1,8.513,7.912,1.238,1.238,0,0,1,9.749,6.674ZM10-.02h0a10.947,10.947,0,0,1,6.782,2.5A7.314,7.314,0,0,1,19.5,8.223h0A7.3,7.3,0,0,1,16.434,13.8,10.919,10.919,0,0,1,9.51,15.915a11.985,11.985,0,0,1-2.162-.259,11.3,11.3,0,0,1-1.853-.569l-4.18,1.638,1.4-3.32A8.125,8.125,0,0,1,.731,10.912a6.708,6.708,0,0,1-.741-3.25A7.3,7.3,0,0,1,3.056,2.081,11.062,11.062,0,0,1,10-.02ZM9.969.943h0a10.028,10.028,0,0,0-6.331,1.9A6.34,6.34,0,0,0,.951,7.688a5.781,5.781,0,0,0,.634,2.792,7.284,7.284,0,0,0,2,2.409l.293.222L3.08,15,5.5,14.045l.185.078a10.3,10.3,0,0,0,1.862.589,10.933,10.933,0,0,0,1.984.239,10,10,0,0,0,6.322-1.9,6.356,6.356,0,0,0,2.689-4.844h0a6.353,6.353,0,0,0-2.39-4.988A9.962,9.962,0,0,0,9.971.943Z" transform="translate(0.013 0.025)" fill="#fd9615" fill-rule="evenodd"/>
</svg>
