<svg xmlns="http://www.w3.org/2000/svg" xmlns:xlink="http://www.w3.org/1999/xlink" width="37" height="37" viewBox="0 0 37 37">
  <defs>
    <filter id="Ellipse_1307" x="0" y="0" width="37" height="37" filterUnits="userSpaceOnUse">
      <feOffset dy="3" input="SourceAlpha"/>
      <feGaussianBlur stdDeviation="3" result="blur"/>
      <feFlood flood-opacity="0.161"/>
      <feComposite operator="in" in2="blur"/>
      <feComposite in="SourceGraphic"/>
    </filter>
  </defs>
  <g id="Group_16880" data-name="Group 16880" transform="translate(9.054 6)">
    <g transform="matrix(1, 0, 0, 1, -9.05, -6)" filter="url(#Ellipse_1307)">
      <circle id="Ellipse_1307-2" data-name="Ellipse 1307" cx="9.5" cy="9.5" r="9.5" transform="translate(9 6)" fill="#fff"/>
    </g>
    <path id="Icon_awesome-caret-down" data-name="Icon awesome-caret-down" d="M.362,0H5.023a.362.362,0,0,1,.255.618L2.949,2.949a.363.363,0,0,1-.513,0L.107.618A.362.362,0,0,1,.362,0Z" transform="translate(8.103 6.807) rotate(90)"/>
    <path id="Icon_awesome-caret-down-2" data-name="Icon awesome-caret-down" d="M.362,3.055H5.023a.362.362,0,0,0,.255-.618L2.949.106a.363.363,0,0,0-.513,0L.107,2.437A.362.362,0,0,0,.362,3.055Z" transform="translate(13.779 6.807) rotate(90)"/>
  </g>
</svg>
