<svg xmlns="http://www.w3.org/2000/svg" width="20.938" height="28.585" viewBox="0 0 20.938 28.585">
  <g id="Group_16860" data-name="Group 16860" transform="translate(0 0)">
    <path id="Path_13904" data-name="Path 13904" d="M150.375-500.952c-.269.029-.783.12-1.143.2a10.5,10.5,0,0,0-7.746,7.191,8.689,8.689,0,0,0-.406,3.207,12.642,12.642,0,0,0,.326,3.258c1.063,4.887,4.487,10.055,9.42,14.205.715.6.663.589,1.155.194a30.453,30.453,0,0,0,8.66-11.193,15.664,15.664,0,0,0,1.16-8.746,10.527,10.527,0,0,0-7.631-8.037A11.9,11.9,0,0,0,150.375-500.952Zm2.4,2.258a8.236,8.236,0,0,1,4.184,2.081,8.242,8.242,0,0,1,2.167,3.315,7.653,7.653,0,0,1,.429,2.344,8,8,0,0,1-2.429,6.151,8.3,8.3,0,0,1-4.27,2.229,9.968,9.968,0,0,1-2.915,0,8.237,8.237,0,0,1-6.586-6.5,11.1,11.1,0,0,1,.006-3.138,8.085,8.085,0,0,1,2.264-4.179,8,8,0,0,1,4.744-2.361A13.15,13.15,0,0,1,152.775-498.694Z" transform="translate(-141.08 501.002)"/>
    <path id="Path_13905" data-name="Path 13905" d="M332.828-283.75a16.336,16.336,0,0,0-1.338,1.258c-.612.617-1.138,1.126-1.172,1.126a.3.3,0,0,1-.148-.057c-.069-.046-.069-.063.017-.16.28-.3-.16-.983-.634-.983-.172,0-.257.046-.509.3-.269.263-.3.286-.3.166a.883.883,0,0,0-.709-.789c-.166-.023-.229,0-.429.189l-.24.211-.354-.12a5,5,0,0,0-1.481-.154l-1.132-.04v.194c0,.189.006.194,2.024,1.378,1.109.652,2.058,1.217,2.109,1.258.086.063-.04.24-1.058,1.486l-1.16,1.418-.989-.017-.983-.017v.651l.7.229.7.229.229.7.229.7.332.017.332.017-.011-1.017-.006-1.017,1.378-1.132c.76-.617,1.4-1.126,1.429-1.126s.6.937,1.269,2.086l1.223,2.081.194.006h.194l-.034-1.16a4.335,4.335,0,0,0-.143-1.441l-.114-.286.223-.251c.246-.274.269-.383.132-.669a.855.855,0,0,0-.629-.463l-.2-.034.286-.292c.377-.383.394-.606.086-.949a.626.626,0,0,0-.772-.217c-.143.086-.154.086-.211-.046s.017-.206,1.1-1.258c1.252-1.2,1.4-1.4,1.4-1.869v-.269h-.3A1,1,0,0,0,332.828-283.75Z" transform="translate(-318.995 290.213)"/>
  </g>
</svg>
