<svg xmlns="http://www.w3.org/2000/svg" width="29.846" height="22.371" viewBox="0 0 29.846 22.371">
  <g id="Group_16835" data-name="Group 16835" transform="translate(0 0)">
    <path id="Path_13868" data-name="Path 13868" d="M10.171-378.146l-.171.117v9.708H39.846v-4.819c0-4.718,0-4.819-.155-4.974s-.256-.155-14.752-.155C11.857-378.27,10.326-378.255,10.171-378.146Zm8.588,2.51a.561.561,0,0,1-.148,1.057c-.14.023-1.135.039-2.207.023-1.8-.023-1.974-.039-2.122-.171a.621.621,0,0,1,.3-1c.062-.023.972-.047,2.021-.047C18.355-375.783,18.534-375.768,18.759-375.635Zm16.656,3.7a.568.568,0,0,1,0,1.011c-.194.1-1.461.117-10.493.117s-10.3-.016-10.493-.117a.569.569,0,0,1-.016-1c.179-.1,1.547-.117,10.493-.124C33.954-372.052,35.221-372.037,35.416-371.936Z" transform="translate(-10 378.27)"/>
    <path id="Path_13869" data-name="Path 13869" d="M15.1-10.692a26.734,26.734,0,0,0,.739,3.062,2.287,2.287,0,0,0,.389.389l.264.2H43.368l.21-.163a1.365,1.365,0,0,0,.319-.381c.093-.186.739-2.883.739-3.109q0-.082-14.768-.078C20.16-10.77,15.1-10.747,15.1-10.692Z" transform="translate(-14.945 21.962)"/>
    <path id="Path_13870" data-name="Path 13870" d="M604.688,185.41a.8.8,0,0,0-.567.762,2.877,2.877,0,0,0,.839,1.523.786.786,0,0,0,.925-.148c.381-.342.373-.684-.047-1.438a4.464,4.464,0,0,0-.389-.622A1,1,0,0,0,604.688,185.41Z" transform="translate(-586.026 -168.202)"/>
    <path id="Path_13871" data-name="Path 13871" d="M373.123,185.9a4.273,4.273,0,0,0-.723,1.43.839.839,0,0,0,.536.762c.3.14.319.14.606,0a2.591,2.591,0,0,0,.956-1.609.749.749,0,0,0-.832-.754C373.364,185.73,373.247,185.769,373.123,185.9Z" transform="translate(-361.363 -168.553)"/>
    <path id="Path_13872" data-name="Path 13872" d="M497.792,196.117c-.256.124-.342.4-.342,1.119,0,.653.008.676.264.933a.64.64,0,0,0,1.042,0l.288-.264.023-.777c.031-.762.023-.77-.179-.94A1.279,1.279,0,0,0,497.792,196.117Z" transform="translate(-482.605 -178.536)"/>
    <path id="Path_13873" data-name="Path 13873" d="M329.9,275.4a2.311,2.311,0,0,0-.894,1.585.558.558,0,0,0,.241.552c.552.466,1.018.311,1.485-.5.358-.622.4-1.119.124-1.376C330.5,275.348,330.23,275.27,329.9,275.4Z" transform="translate(-319.295 -255.435)"/>
    <path id="Path_13874" data-name="Path 13874" d="M650.936,275.083a1.025,1.025,0,0,0-.366.731,4.911,4.911,0,0,0,.723,1.508.883.883,0,0,0,1.376-.7,4.11,4.11,0,0,0-.746-1.453A1.034,1.034,0,0,0,650.936,275.083Z" transform="translate(-631.061 -255.1)"/>
    <path id="Path_13875" data-name="Path 13875" d="M495.27,280.144c-.249.217-.257.249-.28.925-.031.637-.016.707.155.9a1,1,0,0,0,1.469-.117,2.393,2.393,0,0,0,.054-.824c-.023-.63-.031-.668-.28-.886A.788.788,0,0,0,495.27,280.144Z" transform="translate(-480.207 -259.866)"/>
  </g>
</svg>
