<svg xmlns="http://www.w3.org/2000/svg" width="22.572" height="20.937" viewBox="0 0 22.572 20.937">
  <g id="Group_16859" data-name="Group 16859" transform="translate(0 0)">
    <path id="Path_13893" data-name="Path 13893" d="M461.8-465.3a4.823,4.823,0,0,1,1.2,2.755,2.432,2.432,0,0,1-1.249,2.388,3.124,3.124,0,0,0-1.226,1.786,5.375,5.375,0,0,0,.17,2.622.656.656,0,0,1,.05.216,3.556,3.556,0,0,1-.542.064c-2.02.165-3.393.7-3.756,1.446-.1.193-.1.248-.073.813a22.84,22.84,0,0,0,.629,4.4,17.9,17.9,0,0,0,1.281,3.6,4.094,4.094,0,0,0,2.066.583,31.342,31.342,0,0,0,4.165-.023c1.042-.147,1.7-.409,1.763-.7a1.945,1.945,0,0,1,.119-.344c.092-.2.1-.207.377-.262.882-.165,1.373-.813,1.63-2.149a14.906,14.906,0,0,0,.216-1.984c.092-1.428-.014-1.956-.5-2.53l-.243-.289.028-.56c.037-.634.014-.721-.234-.992-.579-.647-2.154-1.015-4.326-1.015h-.84l.032-.175a2.29,2.29,0,0,1,.322-.794c.248-.358.62-.556,1.474-.776a4.418,4.418,0,0,0,2.057-.877,2.07,2.07,0,0,0,.524-1.892,3.919,3.919,0,0,0-1.111-2.121,3.1,3.1,0,0,0-.432-.422.987.987,0,0,0,.147.266,2.189,2.189,0,0,1,.367,1.327,1.344,1.344,0,0,1-.165.826A3.353,3.353,0,0,1,464-458.581c-.285.142-.643.344-.8.45a4.012,4.012,0,0,0-1.134,1.171,2.311,2.311,0,0,0-.262,1.226l.032.271-.312-.028c-.175-.018-.409-.032-.519-.032h-.2l.028-.4a4.873,4.873,0,0,1,.28-1.35c.271-.721.611-1.074,1.676-1.717.7-.422.886-.592,1.088-1.01a1.458,1.458,0,0,0,.193-.79,3.967,3.967,0,0,0-.3-1.662,6.93,6.93,0,0,0-1.91-2.851l-.239-.2Zm2.865,10.584a4.621,4.621,0,0,1,2.333.67c.165.161.179.23.073.4-.211.358-1,.634-2.268.785a40.627,40.627,0,0,1-4.229.05c-1.855-.119-2.925-.377-3.274-.785-.17-.207-.156-.3.087-.441a10.754,10.754,0,0,1,4.064-.772C462.053-454.838,464.064-454.788,464.67-454.719Zm.693,2.985a5.672,5.672,0,0,1,1.29.211c.073.041.083.124.083.868a11.314,11.314,0,0,1-.372,3.265c-.115.266-.252.354-.753.473-.175.041-.358.087-.4.1-.078.023-.078.018,0-.119s.078-.142-.032-.225a3,3,0,0,0-.689-.234c-.62-.161-.923-.266-.923-.322a5.79,5.79,0,0,1,1.212-.092c.629,0,.836-.041.9-.17a12.136,12.136,0,0,0,.28-2.7v-.418l-.546-.266c-.491-.243-.813-.436-.735-.441C464.693-451.8,465-451.771,465.363-451.735Z" transform="translate(-446.081 465.51)" fill="#5f031a"/>
    <path id="Path_13894" data-name="Path 13894" d="M57.182-296.872a7.8,7.8,0,0,0-2.976,3.352c-.4.817-.477,1.323-.257,1.75a2.142,2.142,0,0,0,1.961.854,1.616,1.616,0,0,0,.831-.142,2.451,2.451,0,0,0,1-.661.645.645,0,0,0,.161-.441,1.035,1.035,0,0,0-.142-.629,3.062,3.062,0,0,1-.188-.583,7.96,7.96,0,0,1,.225-1.919c.216-1.1.248-1.478.138-1.6S57.49-297.015,57.182-296.872Z" transform="translate(-52.819 300.867)" fill="#5f031a"/>
    <path id="Path_13895" data-name="Path 13895" d="M15.548-73.361A3.84,3.84,0,0,1,13.822-71.8a1.973,1.973,0,0,1-2.447-.188,1.675,1.675,0,0,1-.487-.978c-.1-.537-.285-.726-.505-.519a2.663,2.663,0,0,0-.321,2.075c.216,1.249,1.217,3.251,1.727,3.453a4.591,4.591,0,0,0,2.131.142,3.376,3.376,0,0,0,1.323-.716,5.469,5.469,0,0,0,1.3-2.016c.138-.317.326-.707.418-.872a.893.893,0,0,0,.165-.551c0-.326-.083-.477-.519-.937a7.689,7.689,0,0,1-.528-.615c-.1-.129-.2-.239-.23-.239A1.408,1.408,0,0,0,15.548-73.361Z" transform="translate(-10 82.783)" fill="#5f031a"/>
    <path id="Path_13896" data-name="Path 13896" d="M119.027-31.711c.014.1.078.4.142.679a3.573,3.573,0,0,1-.138,2.314,6.827,6.827,0,0,1-3.274,3.035,1.416,1.416,0,0,1-1.171-.069c-.386-.193-.546-.207-.652-.046a.931.931,0,0,0,.05.716,6.528,6.528,0,0,0,.978,1.336,7.206,7.206,0,0,0,2.066,1.708,5.737,5.737,0,0,0,2.741.51,11.045,11.045,0,0,0,1.938-.083c.014-.014-.05-.115-.142-.22a5.163,5.163,0,0,1-.689-1.41,20.192,20.192,0,0,1-.533-6.378c.028-.886.041-1.658.023-1.708-.041-.142-.275-.257-.817-.413-.271-.078-.505-.142-.524-.142S119.013-31.8,119.027-31.711Z" transform="translate(-111.491 41.868)" fill="#5f031a"/>
  </g>
</svg>
