<svg xmlns="http://www.w3.org/2000/svg" width="19.18" height="33.527" viewBox="0 0 19.18 33.527">
  <g id="Group_16836" data-name="Group 16836" transform="translate(0.199 0.2)">
    <path id="Path_13876" data-name="Path 13876" d="M223.5-500.909a2.069,2.069,0,0,0-.932.735c-.41.622-.388-.3-.381,15.233,0,11.737.014,14.315.092,14.534a2,2,0,0,0,1.427,1.222l.311.042v.544a1.4,1.4,0,0,0,.085.628,4.585,4.585,0,0,0,1.808,0,1.445,1.445,0,0,0,.085-.636v-.551h11.158v.551a1.439,1.439,0,0,0,.085.636,4.585,4.585,0,0,0,1.808,0,1.4,1.4,0,0,0,.085-.628v-.537l.3-.049a1.9,1.9,0,0,0,1.1-.671c.466-.579.431.558.431-15.219,0-16.193.056-14.738-.565-15.367-.615-.608.014-.565-8.821-.565C225.235-501,223.716-500.987,223.5-500.909Zm16.306.72c.41.3.487.48.508,1.2l.028.664H222.812l.007-.339c.007-.847.169-1.236.628-1.553l.233-.156,7.966.014C239.563-500.337,239.613-500.337,239.8-500.189Zm.523,10.8v8.227H224.655l-.021-4.223-.021-4.216-.163-.353a4.825,4.825,0,0,0-.9-1.1l-.735-.749v-5.812h17.514v8.227Zm-16.447-.353c.12.268.134.53.134,4.428v4.153h-1.13v-9.7l.431.416A3.218,3.218,0,0,1,223.878-489.744Zm.134,10.713c0,1.688-.028,1.766-.7,2.422l-.431.417v-4.265h1.13Zm16.3,3.545c-.021,4.922-.021,4.979-.169,5.177a1.8,1.8,0,0,1-.374.353l-.219.148h-15.96l-.226-.155a1.689,1.689,0,0,1-.388-.388c-.162-.24-.162-.261-.162-2.535v-2.3l.727-.748c1.059-1.095,1.066-1.1,1.095-2.994l.028-1.532h15.664Zm-14.957,6.645v.318h-.706v-.636h.706Zm13.135,0v.318h-.706v-.636h.706Z" transform="translate(-222.181 501.009)" stroke="#000" stroke-width="0.4"/>
    <path id="Path_13877" data-name="Path 13877" d="M264-461.16a.408.408,0,0,0-.042.544,1.444,1.444,0,0,0,.635.085c.452,0,.572-.021.692-.141.148-.148.127-.325-.056-.48A2.417,2.417,0,0,0,264-461.16Z" transform="translate(-262.469 462.581)" stroke="#000" stroke-width="0.4"/>
    <path id="Path_13878" data-name="Path 13878" d="M328.926-461.167a.275.275,0,0,0-.028.473,1.83,1.83,0,0,0,1.314.007c.318-.311.007-.593-.664-.593A1.153,1.153,0,0,0,328.926-461.167Z" transform="translate(-325.173 462.623)" stroke="#000" stroke-width="0.4"/>
    <path id="Path_13879" data-name="Path 13879" d="M610.642-461.165a.336.336,0,0,0-.028.565,13.908,13.908,0,0,0,1.985.071,13.851,13.851,0,0,0,1.984-.071.307.307,0,0,0,.134-.283.308.308,0,0,0-.134-.283A28.339,28.339,0,0,0,610.642-461.165Z" transform="translate(-597.349 462.578)" stroke="#000" stroke-width="0.4"/>
  </g>
</svg>
