<svg xmlns="http://www.w3.org/2000/svg" width="57" height="57" viewBox="0 0 57 57">
  <g id="Group_16804" data-name="Group 16804" transform="translate(-130.5 -285.5)">
    <circle id="Ellipse_1277" data-name="Ellipse 1277" cx="13" cy="13" r="13" transform="translate(145.5 300.5)" fill="#fd9615" opacity="0.2"/>
    <circle id="Ellipse_1278" data-name="Ellipse 1278" cx="20" cy="20" r="20" transform="translate(138.5 293.5)" fill="#fd9615" opacity="0.2"/>
    <circle id="Ellipse_1279" data-name="Ellipse 1279" cx="28.5" cy="28.5" r="28.5" transform="translate(130.5 285.5)" fill="#fd9615" opacity="0.2"/>
    <g id="Group_16803" data-name="Group 16803" transform="translate(150.038 295.444)">
      <path id="Icon_material-location-on" data-name="Icon material-location-on" d="M15.766,3A8.26,8.26,0,0,0,7.5,11.266c0,6.2,8.266,15.352,8.266,15.352s8.266-9.152,8.266-15.352A8.26,8.26,0,0,0,15.766,3Zm0,11.219a2.952,2.952,0,1,1,2.952-2.952A2.953,2.953,0,0,1,15.766,14.219Z" transform="translate(-7.5 -3)" fill="#5f031a"/>
      <g id="Group_16803-2" data-name="Group 16803" transform="translate(4.167 4.391)">
        <ellipse id="Ellipse_1276" data-name="Ellipse 1276" cx="4" cy="4.5" rx="4" ry="4.5" transform="translate(0.294 -0.336)" fill="#fff"/>
        <path id="Icon_awesome-bed" data-name="Icon awesome-bed" d="M1.494,6.129a.679.679,0,1,0-.679-.679A.68.68,0,0,0,1.494,6.129ZM4.481,5.043H2.58a.136.136,0,0,0-.136.136V6.4H.543V4.636A.136.136,0,0,0,.407,4.5H.136A.136.136,0,0,0,0,4.636V7.623a.136.136,0,0,0,.136.136H.407a.136.136,0,0,0,.136-.136V7.216H4.888v.407a.136.136,0,0,0,.136.136H5.3a.136.136,0,0,0,.136-.136V5.994A.95.95,0,0,0,4.481,5.043Z" transform="translate(1.383 -1.835)"/>
      </g>
    </g>
  </g>
</svg>
