<svg id="Icon_ionic-ios-wifi" data-name="Icon ionic-ios-wifi" xmlns="http://www.w3.org/2000/svg" width="32.035" height="22.867" viewBox="0 0 32.035 22.867">
  <path id="Path_13253" data-name="Path 13253" d="M18.257,6.75A23.623,23.623,0,0,0,2.429,13.06a.569.569,0,0,0-.021.815l1.908,1.994a.587.587,0,0,0,.829.021,19.2,19.2,0,0,1,13.12-5.124,19.2,19.2,0,0,1,13.12,5.124.587.587,0,0,0,.829-.021l1.908-1.994a.57.57,0,0,0-.021-.815A23.686,23.686,0,0,0,18.257,6.75Z" transform="translate(-2.246 -6.75)" fill="#5f031a"/>
  <path id="Path_13254" data-name="Path 13254" d="M7.962,19.588l2.044,2.022a.586.586,0,0,0,.8.021,11.115,11.115,0,0,1,14.706,0,.586.586,0,0,0,.8-.021l2.044-2.022a.571.571,0,0,0-.021-.836,15.239,15.239,0,0,0-20.366,0A.582.582,0,0,0,7.962,19.588Z" transform="translate(-2.156 -6.618)" fill="#5f031a"/>
  <path id="Path_13255" data-name="Path 13255" d="M18.071,22.8a5.822,5.822,0,0,0-4.245,1.822.572.572,0,0,0,.014.8l3.816,3.766a.587.587,0,0,0,.829,0L22.3,25.418a.572.572,0,0,0,.014-.8A5.85,5.85,0,0,0,18.071,22.8Z" transform="translate(-2.06 -6.489)" fill="#5f031a"/>
</svg>
