<svg xmlns="http://www.w3.org/2000/svg" width="14.209" height="16.239" viewBox="0 0 14.209 16.239">
  <path id="Icon_awesome-bell" data-name="Icon awesome-bell" d="M7.1,16.239a2.029,2.029,0,0,0,2.029-2.03H5.075A2.029,2.029,0,0,0,7.1,16.239Zm6.831-4.748c-.613-.658-1.759-1.649-1.759-4.893A5.008,5.008,0,0,0,8.119,1.676V1.015a1.014,1.014,0,1,0-2.029,0v.661A5.008,5.008,0,0,0,2.032,6.6c0,3.245-1.147,4.235-1.759,4.893A.991.991,0,0,0,0,12.179a1.016,1.016,0,0,0,1.018,1.015H13.191a1.016,1.016,0,0,0,1.018-1.015.99.99,0,0,0-.273-.689Z" transform="translate(0)" fill="#5f031a"/>
</svg>
