<svg xmlns="http://www.w3.org/2000/svg" width="21.531" height="7.177" viewBox="0 0 21.531 7.177">
  <path id="Icon_awesome-hand-holding" data-name="Icon awesome-hand-holding" d="M21.13,22.8a1.237,1.237,0,0,0-1.592,0l-3.454,2.762a2.38,2.38,0,0,1-1.5.523H10.167a.6.6,0,0,1,0-1.2h2.927a1.244,1.244,0,0,0,1.245-.994,1.2,1.2,0,0,0-1.181-1.4H7.177a4.4,4.4,0,0,0-2.77.983L2.669,24.892H.6a.6.6,0,0,0-.6.6v3.588a.6.6,0,0,0,.6.6H13.934a2.4,2.4,0,0,0,1.5-.523l5.652-4.523A1.2,1.2,0,0,0,21.13,22.8Z" transform="translate(0 -22.5)"/>
</svg>
