<svg xmlns="http://www.w3.org/2000/svg" width="10.592" height="13.769" viewBox="0 0 10.592 13.769">
  <path id="Icon_ionic-ios-lock" data-name="Icon ionic-ios-lock" d="M16.018,8.141h-.794V6.6a3.178,3.178,0,1,0-6.355-.043V8.141H8.074A1.328,1.328,0,0,0,6.75,9.465V15.82a1.328,1.328,0,0,0,1.324,1.324h7.944a1.328,1.328,0,0,0,1.324-1.324V9.465A1.328,1.328,0,0,0,16.018,8.141Zm-3.508,4.131v2.277a.475.475,0,0,1-.44.477.464.464,0,0,1-.487-.463v-2.29a1.059,1.059,0,1,1,.927,0ZM14.3,8.141H9.8V6.552a2.251,2.251,0,0,1,4.5,0Z" transform="translate(-6.75 -3.374)" fill="#fd9615"/>
</svg>
