<svg xmlns="http://www.w3.org/2000/svg" width="12.403" height="10.853" viewBox="0 0 12.403 10.853">
  <path id="Icon_awesome-camera" data-name="Icon awesome-camera" d="M12.4,4.963V11.94A1.163,1.163,0,0,1,11.241,13.1H1.163A1.163,1.163,0,0,1,0,11.94V4.963A1.163,1.163,0,0,1,1.163,3.8H3.295l.3-.8A1.161,1.161,0,0,1,4.68,2.25h3.04A1.161,1.161,0,0,1,8.808,3l.3.8h2.132A1.163,1.163,0,0,1,12.4,4.963ZM9.109,8.452A2.907,2.907,0,1,0,6.2,11.359,2.909,2.909,0,0,0,9.109,8.452Zm-.775,0A2.132,2.132,0,1,1,6.2,6.32,2.135,2.135,0,0,1,8.333,8.452Z" transform="translate(0 -2.25)" fill="#5f031a"/>
</svg>
