<svg xmlns="http://www.w3.org/2000/svg" width="16.549" height="13.24" viewBox="0 0 16.549 13.24">
  <path id="Icon_awesome-user-edit" data-name="Icon awesome-user-edit" d="M5.792,6.62a3.31,3.31,0,1,0-3.31-3.31A3.31,3.31,0,0,0,5.792,6.62Zm2.317.827H7.677a4.5,4.5,0,0,1-3.77,0H3.475A3.476,3.476,0,0,0,0,10.923V12A1.242,1.242,0,0,0,1.241,13.24H8.35a1.242,1.242,0,0,1-.067-.551l.176-1.575.031-.287.2-.2,2-2A3.44,3.44,0,0,0,8.109,7.447ZM9.281,11.2,9.1,12.782a.412.412,0,0,0,.455.455l1.575-.176L14.7,9.5,12.847,7.641,9.281,11.2Zm7.088-4.251-.98-.98a.62.62,0,0,0-.874,0l-.977.977-.106.106,1.857,1.854L16.369,7.83a.623.623,0,0,0,0-.877Z" opacity="0.5"/>
</svg>
