<svg xmlns="http://www.w3.org/2000/svg" width="28.764" height="20.532" viewBox="0 0 28.764 20.532">
  <g id="Icon_ionic-ios-wifi" data-name="Icon ionic-ios-wifi" transform="translate(-2.246 -6.75)">
    <path id="Path_13253" data-name="Path 13253" d="M16.622,6.75A21.211,21.211,0,0,0,2.41,12.416a.511.511,0,0,0-.019.731L4.1,14.937a.527.527,0,0,0,.744.019,17.237,17.237,0,0,1,11.78-4.6,17.237,17.237,0,0,1,11.78,4.6.527.527,0,0,0,.744-.019l1.713-1.79a.512.512,0,0,0-.019-.731A21.268,21.268,0,0,0,16.622,6.75Z" fill="#5f031a"/>
    <path id="Path_13254" data-name="Path 13254" d="M7.944,19.1,9.78,20.92a.526.526,0,0,0,.719.019,9.98,9.98,0,0,1,13.2,0,.526.526,0,0,0,.719-.019L26.257,19.1a.512.512,0,0,0-.019-.751,13.683,13.683,0,0,0-18.286,0A.523.523,0,0,0,7.944,19.1Z" transform="translate(-0.485 -0.708)" fill="#5f031a"/>
    <path id="Path_13255" data-name="Path 13255" d="M17.621,22.8a5.228,5.228,0,0,0-3.811,1.636.513.513,0,0,0,.013.719l3.426,3.381a.527.527,0,0,0,.744,0L21.42,25.15a.513.513,0,0,0,.013-.719A5.253,5.253,0,0,0,17.621,22.8Z" transform="translate(-0.999 -1.403)" fill="#5f031a"/>
  </g>
</svg>
