<svg xmlns="http://www.w3.org/2000/svg" width="22.37" height="19.574" viewBox="0 0 22.37 19.574">
  <path id="Icon_awesome-camera" data-name="Icon awesome-camera" d="M22.37,7.143V19.727a2.1,2.1,0,0,1-2.1,2.1H2.1a2.1,2.1,0,0,1-2.1-2.1V7.143a2.1,2.1,0,0,1,2.1-2.1H5.942l.537-1.437A2.094,2.094,0,0,1,8.441,2.25h5.483a2.094,2.094,0,0,1,1.962,1.359l.542,1.437h3.845A2.1,2.1,0,0,1,22.37,7.143Zm-5.942,6.292a5.243,5.243,0,1,0-5.243,5.243A5.247,5.247,0,0,0,16.428,13.435Zm-1.4,0A3.845,3.845,0,1,1,11.185,9.59,3.851,3.851,0,0,1,15.03,13.435Z" transform="translate(0 -2.25)" fill="#5f031a" opacity="0.23"/>
</svg>
