<svg xmlns="http://www.w3.org/2000/svg" width="13.248" height="11.358" viewBox="0 0 13.248 11.358">
  <g id="Icon_ionic-ios-eye-off" data-name="Icon ionic-ios-eye-off" transform="translate(0 0)" opacity="0.5">
    <path id="Path_13132" data-name="Path 13132" d="M5.222,4.621a.42.42,0,0,0-.594.594l10.514,10.52a.417.417,0,0,0,.405.106.41.41,0,0,0,.189-.109.419.419,0,0,0,0-.592Z" transform="translate(-3.557 -4.499)"/>
    <g id="Group_16579" data-name="Group 16579" transform="translate(0 1.42)">
      <path id="Path_13133" data-name="Path 13133" d="M9,16.911a2.659,2.659,0,0,1-2.529-3.8L4.892,11.531a20.746,20.746,0,0,0-2.517,2.4.468.468,0,0,0,0,.63c1.919,2.121,3.611,3.945,6.5,3.945a5.7,5.7,0,0,0,2.434-.568l-1.287-1.287A2.687,2.687,0,0,1,9,16.911Z" transform="translate(-2.252 -9.993)"/>
      <path id="Path_13134" data-name="Path 13134" d="M21.152,12.43a.464.464,0,0,0,.015-.612c-1.547-1.878-3.691-3.942-6.521-3.942a5.536,5.536,0,0,0-2.425.562l1.292,1.292a2.606,2.606,0,0,1,1.014-.254,2.659,2.659,0,0,1,2.529,3.8l1.582,1.582A19.564,19.564,0,0,0,21.152,12.43Z" transform="translate(-8.027 -7.875)"/>
      <path id="Path_13135" data-name="Path 13135" d="M13.507,17.387a1.9,1.9,0,0,0,1.742,1.742,1.849,1.849,0,0,0,.692-.077l-2.36-2.36A1.935,1.935,0,0,0,13.507,17.387Z" transform="translate(-8.769 -12.983)"/>
      <path id="Path_13136" data-name="Path 13136" d="M21.628,17.841c0-.038,0-.077,0-.115a1.312,1.312,0,0,1-.538.115c-.033,0-.062,0-.092,0l.55.553A1.891,1.891,0,0,0,21.628,17.841Z" transform="translate(-13.111 -13.582)"/>
      <path id="Path_13137" data-name="Path 13137" d="M17.246,14a1.39,1.39,0,0,1,.092-.5c-.03,0-.059,0-.092,0a1.871,1.871,0,0,0-.547.083l.553.553C17.249,14.092,17.246,14.047,17.246,14Z" transform="translate(-10.622 -11.134)"/>
    </g>
  </g>
</svg>
