<svg xmlns="http://www.w3.org/2000/svg" width="23.778" height="23.783" viewBox="0 0 23.778 23.783">
  <g id="kitchen-spoons" transform="translate(0.008)">
    <path id="Path_13246" data-name="Path 13246" d="M4.794,11.184a.368.368,0,1,1,.736,0v7.183c0,.108,0,.226.008.345a17.114,17.114,0,0,1-.112,3c-.015.1-.027.205-.041.314-.074.645-.165,1.43-.776,1.725a.367.367,0,0,1-.161.037H3.654a.359.359,0,0,1-.093-.012,1.11,1.11,0,0,1-.617-.377,2.453,2.453,0,0,1-.424-.763.373.373,0,0,1-.021-.1h0q-.084-1.144-.108-2.33c-.015-.776-.008-1.556.025-2.334h0V9.831A3.159,3.159,0,0,1,.695,8.5,5.368,5.368,0,0,1,0,5.83V5.816a8.981,8.981,0,0,1,.194-2.28A5.136,5.136,0,0,1,.956,1.748,4.194,4.194,0,0,1,2.278.505,3.4,3.4,0,0,1,4.117.035a3.347,3.347,0,0,1,1.8.61,4.138,4.138,0,0,1,1.2,1.33,6.973,6.973,0,0,1,.766,3.2,7.279,7.279,0,0,1-.4,2.632A3.659,3.659,0,0,1,5.944,9.775a3.109,3.109,0,0,1-1.531.41A.367.367,0,1,1,4.4,9.451a2.4,2.4,0,0,0,1.177-.314A2.95,2.95,0,0,0,6.79,7.555a6.537,6.537,0,0,0,.356-2.365,6.247,6.247,0,0,0-.67-2.847,3.413,3.413,0,0,0-.983-1.094A2.616,2.616,0,0,0,4.088.768a2.685,2.685,0,0,0-1.444.372A3.454,3.454,0,0,0,1.558,2.166,4.423,4.423,0,0,0,.906,3.7,8.494,8.494,0,0,0,.733,5.8V5.8A4.673,4.673,0,0,0,1.318,8.11,2.514,2.514,0,0,0,2.862,9.2a.368.368,0,0,1,.29.36v8.308h0v.014q-.049,1.164-.025,2.309c.014.737.05,1.485.1,2.238a1.64,1.64,0,0,0,.269.484.425.425,0,0,0,.192.137h.654a2.075,2.075,0,0,0,.308-1.109c.014-.124.027-.24.043-.339A16.616,16.616,0,0,0,4.8,18.727c0-.112,0-.223-.008-.345a.259.259,0,0,1,0-.039v-7.16Zm16.147,2.967a.368.368,0,1,1,0-.736h2.088V7.164a8.672,8.672,0,0,0-1.181-4.156,5.491,5.491,0,0,0-2.087-1.92V21.62c0,.122,0,.259,0,.354.017.424.093.929.486.914h.014v0h.826c.414-.058.4-.559.4-1,0-.11,0-.207,0-.213V15.444a.368.368,0,0,1,.736,0v6.233c0,.139,0,.17,0,.2.014.753.029,1.618-1.051,1.738a.427.427,0,0,1-.072.008h-.832v0c-1.02.033-1.2-.865-1.235-1.62-.006-.168-.006-.283-.006-.383V.5h0a.35.35,0,0,1,.031-.145.368.368,0,0,1,.484-.194,6.338,6.338,0,0,1,2.929,2.45,9.386,9.386,0,0,1,1.3,4.5.377.377,0,0,1,0,.048v6.62a.368.368,0,0,1-.368.368H20.941ZM12.327.383a.368.368,0,0,1,.736,0V6.608a.368.368,0,0,1-.736,0V.383Zm1.554,0a.368.368,0,1,1,.736,0V6.608a.368.368,0,1,1-.736,0V.383Zm1.614,0a.368.368,0,0,1,.736,0V7.16a.376.376,0,0,1,0,.046,3.918,3.918,0,0,1-.664,2.176,2.174,2.174,0,0,1-1.763.848.367.367,0,0,1-.021-.734,1.475,1.475,0,0,0,1.2-.561,3.215,3.215,0,0,0,.515-1.773V.387ZM10.758.368a.368.368,0,0,1,.736,0v6.78a3.71,3.71,0,0,0,.3,1.4,1.119,1.119,0,0,0,.656.617.369.369,0,0,1,.254.35h0V22.279a.286.286,0,0,1,0,.041.743.743,0,0,0,.089.5.5.5,0,0,0,.348.161h.813a.542.542,0,0,0,.259-.205,1.227,1.227,0,0,0,.174-.523V11.362a.368.368,0,1,1,.736,0V22.279h0a.343.343,0,0,1,0,.045,1.947,1.947,0,0,1-.3.875,1.243,1.243,0,0,1-.67.5.384.384,0,0,1-.141.029h-.883a.286.286,0,0,1-.041,0,1.207,1.207,0,0,1-.875-.449,1.434,1.434,0,0,1-.24-1V9.765a1.867,1.867,0,0,1-.836-.89,4.454,4.454,0,0,1-.37-1.688.376.376,0,0,1,0-.046V.368Z" transform="translate(0)" fill="#5f031a"/>
  </g>
</svg>
