<svg id="lift-elevator" xmlns="http://www.w3.org/2000/svg" width="22.452" height="26.765" viewBox="0 0 22.452 26.765">
  <path id="Path_13252" data-name="Path 13252" d="M19.726,12.549v4.469c0,1.324-3.374,1.324-3.374,0V12.549c0-1.324,3.374-1.324,3.374,0ZM1,0H21.457a1,1,0,0,1,1,1V25.769a1,1,0,0,1-1,1H1a1,1,0,0,1-1-1V1A1,1,0,0,1,1,0ZM9.11,3.783v1.7c0,.366-.688.366-.688,0v-1.7l-.582.566a.277.277,0,0,1-.368-.414L8.583,2.9a.276.276,0,0,1,.368,0c.348.333.76.706,1.111,1.039a.276.276,0,0,1-.372.407L9.11,3.783ZM5.933,7.263H12.39a1.866,1.866,0,0,1,1.862,1.862v12.78a1.922,1.922,0,0,1-.614,1.315,1.7,1.7,0,0,1-1.248.547H5.933a1.866,1.866,0,0,1-1.862-1.862V9.123a1.863,1.863,0,0,1,1.862-1.86Zm2.4,1.063a.322.322,0,0,1,0-.046H6a.982.982,0,0,0-.978.978V21.771A.982.982,0,0,0,6,22.749H8.333a.322.322,0,0,1,0-.046V8.326Zm.884-.046a.322.322,0,0,1,0,.046V22.7a.322.322,0,0,1,0,.046h3.11a.982.982,0,0,0,.978-.978V9.258a.982.982,0,0,0-.978-.978H9.215ZM21.272,1.226H1.178a.04.04,0,0,0-.03.013.043.043,0,0,0-.013.03V25.491a.04.04,0,0,0,.013.03.043.043,0,0,0,.03.013H21.272a.048.048,0,0,0,.046-.046V1.27a.04.04,0,0,0-.013-.03.052.052,0,0,0-.033-.013Zm-3.08,14.113a.155.155,0,0,0-.046-.109.151.151,0,0,0-.109-.046.155.155,0,0,0-.109.046.151.151,0,0,0-.046.109v1.067l-.544-.477a.15.15,0,0,0-.111-.037.159.159,0,0,0-.107.05.152.152,0,0,0-.039.111.154.154,0,0,0,.05.1l.8.7a.159.159,0,0,0,.1.039.145.145,0,0,0,.1-.039l.8-.7a.153.153,0,0,0,.011-.216l0,0a.154.154,0,0,0-.1-.05h0a.155.155,0,0,0-.111.039l-.544.475.007-1.065Zm0-2.178v1.067a.154.154,0,0,1-.307,0V13.161l-.544.477a.15.15,0,0,1-.111.037.159.159,0,0,1-.107-.05.152.152,0,0,1-.039-.111.154.154,0,0,1,.05-.1l.8-.7a.159.159,0,0,1,.1-.039.145.145,0,0,1,.1.039l.8.7a.153.153,0,0,1,.011.216l0,0a.154.154,0,0,1-.1.05h0a.155.155,0,0,1-.111-.039l-.54-.477Z" fill="#5f031a" fill-rule="evenodd"/>
</svg>
