<svg xmlns="http://www.w3.org/2000/svg" width="22.572" height="24.151" viewBox="0 0 22.572 24.151">
  <path id="parking" d="M5.039,8.793A3.026,3.026,0,0,0,3.5,10.862l-.943,2.909L2.1,12.92c-2.018-.12-2.25,1.034-.232,2.048h0c-2.246,1.454-1.938,4-1.716,6.823a.93.93,0,0,0,0,.106v1.572a.684.684,0,0,0,.682.682h2.9a.684.684,0,0,0,.682-.682v-.546H18.159v.546a.684.684,0,0,0,.682.682h2.907a.684.684,0,0,0,.682-.682V22.261c.226-3.681.368-5.163-1.089-6.658l-.358-.548c2.207-1.046,2.01-2.256-.065-2.134l-.393.761-.7-2.82c-.291-1.161-.983-2.18-2.181-2.18h-.014a11.967,11.967,0,0,1-.454,1.146c.884.028,1.421.786,1.612,1.661l.7,2.924H3.538l.878-2.924a3.931,3.931,0,0,1,.377-.857,1.242,1.242,0,0,1,.316-.411,1.376,1.376,0,0,1,.428-.287c-.069-.136-.136-.269-.2-.407-.112-.24-.214-.483-.307-.727Zm8.718,2.981a9.827,9.827,0,0,1-2.142,1.786.3.3,0,0,1-.346.012A12.185,12.185,0,0,1,8.278,10.9a9.53,9.53,0,0,1-2.01-4.343A5.761,5.761,0,0,1,6.989,2.49,5,5,0,0,1,8.1,1.256,5.424,5.424,0,0,1,11.511,0,4.805,4.805,0,0,1,14.74,1.321,4.844,4.844,0,0,1,15.6,2.372a6.47,6.47,0,0,1,.615,4.654,10.251,10.251,0,0,1-2.461,4.744h0Zm-.426-7.057a1.521,1.521,0,0,1-.2.757,1.386,1.386,0,0,1-.556.546,1.948,1.948,0,0,1-.912.2h-.66V7.429H9.724V3.211h1.932a1.731,1.731,0,0,1,1.242.411A1.444,1.444,0,0,1,13.331,4.717ZM11.6,5.224a.442.442,0,0,0,.43-.507.444.444,0,0,0-.43-.493h-.59v1Zm-.311-3.872A3.82,3.82,0,0,1,14.948,5.32a3.82,3.82,0,0,1-3.663,3.968A3.82,3.82,0,0,1,7.622,5.32,3.82,3.82,0,0,1,11.285,1.352Zm-5.7,16.964L3,17.99c-.609-.067-.772.2-.566.715l.281.678a.983.983,0,0,0,.348.393,1.2,1.2,0,0,0,.578.159l2.305.018c.556,0,.8-.224.621-.733a1.242,1.242,0,0,0-.983-.9Zm11.41,0,2.582-.326c.611-.067.774.2.566.715l-.279.678a.992.992,0,0,1-.348.393,1.209,1.209,0,0,1-.59.159l-2.3.018c-.556,0-.786-.224-.623-.733a1.246,1.246,0,0,1,.983-.9Z" transform="translate(0)" fill="#5f031a" fill-rule="evenodd"/>
</svg>
