<svg xmlns="http://www.w3.org/2000/svg" width="18.552" height="19.85" viewBox="0 0 18.552 19.85">
  <path id="parking" d="M4.142,7.227a2.487,2.487,0,0,0-1.266,1.7L2.1,11.318l-.373-.7c-1.659-.1-1.85.85-.191,1.683h0C-.31,13.5-.056,15.589.126,17.91a.764.764,0,0,0,0,.087V19.29a.562.562,0,0,0,.561.561H3.069a.562.562,0,0,0,.561-.561v-.449h11.3v.449a.562.562,0,0,0,.561.561h2.389a.562.562,0,0,0,.561-.561V18.3c.186-3.025.3-4.243-.895-5.473l-.294-.451c1.814-.859,1.652-1.854-.053-1.754l-.323.625-.577-2.318c-.239-.955-.808-1.791-1.793-1.791h-.011a9.836,9.836,0,0,1-.373.942c.727.023,1.168.646,1.325,1.365l.578,2.4H2.908l.722-2.4a3.231,3.231,0,0,1,.31-.7A1.021,1.021,0,0,1,4.2,8.4a1.131,1.131,0,0,1,.352-.236c-.057-.111-.111-.221-.162-.334-.092-.2-.176-.4-.252-.6Zm7.165,2.45a8.077,8.077,0,0,1-1.761,1.468.25.25,0,0,1-.284.01A10.015,10.015,0,0,1,6.8,8.955a7.833,7.833,0,0,1-1.652-3.57,4.735,4.735,0,0,1,.593-3.339A4.113,4.113,0,0,1,6.66,1.032,4.458,4.458,0,0,1,9.461,0a3.949,3.949,0,0,1,2.654,1.085,3.982,3.982,0,0,1,.709.864,5.318,5.318,0,0,1,.506,3.825,8.425,8.425,0,0,1-2.022,3.9h0Zm-.351-5.8A1.25,1.25,0,0,1,10.8,4.5a1.139,1.139,0,0,1-.457.449,1.6,1.6,0,0,1-.749.162H9.046v1H7.993V2.639H9.58a1.423,1.423,0,0,1,1.021.338A1.187,1.187,0,0,1,10.957,3.877ZM9.53,4.293a.363.363,0,0,0,.354-.417.365.365,0,0,0-.354-.405H9.046v.822ZM9.275,1.111a3.14,3.14,0,0,1,3.011,3.261A3.14,3.14,0,0,1,9.275,7.634,3.14,3.14,0,0,1,6.264,4.373,3.14,3.14,0,0,1,9.275,1.111ZM4.591,15.054l-2.127-.268c-.5-.055-.635.162-.465.588l.231.557a.808.808,0,0,0,.286.323.982.982,0,0,0,.475.131l1.895.015c.457,0,.654-.184.51-.6a1.021,1.021,0,0,0-.808-.74Zm9.378,0,2.122-.268c.5-.055.636.162.465.588l-.229.557a.816.816,0,0,1-.286.323.993.993,0,0,1-.485.131l-1.893.015c-.457,0-.646-.184-.512-.6a1.024,1.024,0,0,1,.808-.74Z" transform="translate(0)" fill="#5f031a" fill-rule="evenodd"/>
</svg>
