<svg xmlns="http://www.w3.org/2000/svg" width="12.944" height="6.493" viewBox="0 0 12.944 6.493">
  <path id="Path_13902" data-name="Path 13902" d="M189.57,606.512A3.213,3.213,0,0,1,192,608.607a3.066,3.066,0,0,0-2.143-1.641c-.005,0-.013,0-.018-.005a3.429,3.429,0,0,0-2.778.507l.454.364c.339.227-.288,1.032-.624.805l-.561-.308a2.169,2.169,0,0,0-.127.331,2.207,2.207,0,0,0,.589,2.133h11.093a3.615,3.615,0,0,0,1.185-2.278l-6.134-4.215A4.6,4.6,0,0,0,189.57,606.512Z" transform="translate(-186.128 -604.3)" fill="#5f031a"/>
</svg>
