<svg xmlns="http://www.w3.org/2000/svg" width="20.949" height="24.973" viewBox="0 0 20.949 24.973">
  <path id="Path_13252" data-name="Path 13252" d="M18.405,11.709v4.17c0,1.236-3.148,1.236-3.148,0v-4.17c0-1.236,3.148-1.236,3.148,0ZM.929,0H20.021a.93.93,0,0,1,.929.929V24.044a.93.93,0,0,1-.929.929H.929A.93.93,0,0,1,0,24.042V.929A.93.93,0,0,1,.929,0ZM8.5,3.53V5.117c0,.341-.642.341-.642,0V3.528l-.543.528a.258.258,0,0,1-.343-.386L8.009,2.7a.258.258,0,0,1,.343,0c.325.311.709.658,1.036.969a.258.258,0,0,1-.347.38L8.5,3.53ZM5.536,6.777h6.025A1.741,1.741,0,0,1,13.3,8.515V20.439a1.793,1.793,0,0,1-.573,1.227,1.589,1.589,0,0,1-1.164.51H5.536A1.741,1.741,0,0,1,3.8,20.439V8.513A1.738,1.738,0,0,1,5.536,6.777Zm2.237.992a.3.3,0,0,1,0-.043H5.6a.916.916,0,0,0-.912.912V20.313a.916.916,0,0,0,.912.912H7.775a.3.3,0,0,1,0-.043V7.769ZM8.6,7.726a.3.3,0,0,1,0,.043V21.183a.3.3,0,0,1,0,.043h2.9a.916.916,0,0,0,.912-.912V8.639a.916.916,0,0,0-.912-.912H8.6Zm11.25-6.582H1.1a.037.037,0,0,0-.028.012.04.04,0,0,0-.012.028v22.6a.037.037,0,0,0,.012.028.04.04,0,0,0,.028.012H19.848a.044.044,0,0,0,.043-.043V1.185a.037.037,0,0,0-.012-.028.049.049,0,0,0-.03-.012ZM16.974,14.312a.145.145,0,0,0-.043-.1.141.141,0,0,0-.1-.043.145.145,0,0,0-.1.043.141.141,0,0,0-.043.1v1l-.508-.445a.14.14,0,0,0-.1-.035.148.148,0,0,0-.1.047.142.142,0,0,0-.037.1.143.143,0,0,0,.047.1l.748.652a.148.148,0,0,0,.1.037.136.136,0,0,0,.093-.037l.748-.652a.142.142,0,0,0,.01-.2l0,0a.143.143,0,0,0-.1-.047h0a.145.145,0,0,0-.1.037l-.508.443.006-.994Zm0-2.032v1a.143.143,0,0,1-.287,0v-1l-.508.445a.14.14,0,0,1-.1.035.148.148,0,0,1-.1-.047.142.142,0,0,1-.037-.1.143.143,0,0,1,.047-.1l.748-.652a.148.148,0,0,1,.1-.037.136.136,0,0,1,.093.037l.748.652a.142.142,0,0,1,.01.2l0,0a.143.143,0,0,1-.1.047h0a.145.145,0,0,1-.1-.037l-.5-.445Z" fill-rule="evenodd"/>
</svg>
