<svg xmlns="http://www.w3.org/2000/svg" width="9.134" height="4.567" viewBox="0 0 9.134 4.567">
  <path id="Path_13861" data-name="Path 13861" d="M10.939,14.625h-.008a.446.446,0,0,0-.444.444.045.045,0,0,1-.045.045H3.192a.045.045,0,0,1-.045-.045.446.446,0,0,0-.444-.444H2.694a.446.446,0,0,0-.444.444v3.678a.446.446,0,0,0,.444.444H2.7a.446.446,0,0,0,.444-.444v-.126a.082.082,0,0,1,.082-.082h7.177a.082.082,0,0,1,.082.082v.126a.446.446,0,0,0,.444.444h.008a.446.446,0,0,0,.444-.444V15.069A.446.446,0,0,0,10.939,14.625Z" transform="translate(-2.25 -14.625)"/>
</svg>
