<svg xmlns="http://www.w3.org/2000/svg" width="16.402" height="14.353" viewBox="0 0 16.402 14.353">
  <path id="Path_13867" data-name="Path 13867" d="M24.353,71.3H14.1a2.05,2.05,0,0,0-2.05,2.05V75.4h1.026V73.35A1.026,1.026,0,0,1,14.1,72.324H24.355a1.026,1.026,0,0,1,1.026,1.026V83.6a1.026,1.026,0,0,1-1.026,1.026H14.1A1.026,1.026,0,0,1,13.075,83.6v-2.05H12.049V83.6a2.05,2.05,0,0,0,2.05,2.05H24.352A2.05,2.05,0,0,0,26.4,83.6V73.35a2.047,2.047,0,0,0-2.049-2.05ZM18.89,81.676a.512.512,0,0,0,.725.725l3.537-3.537a.591.591,0,0,0,0-.777l-3.535-3.537a.512.512,0,0,0-.725.725l2.688,2.687H10.512a.513.513,0,0,0,0,1.026H21.578L18.89,81.676Z" transform="translate(-10 -71.3)" fill="#ff6b6b"/>
</svg>
