<svg xmlns="http://www.w3.org/2000/svg" width="32.435" height="25.559" viewBox="0 0 32.435 25.559">
  <path id="Path_13906" data-name="Path 13906" d="M40.079,139.448l-28.563-.013s-3.075.139-.639-2.175a14.912,14.912,0,0,1,2.231-.973,3.852,3.852,0,0,1-.331-1.556,3.485,3.485,0,0,1,3.343-3.611,3.483,3.483,0,0,1,3.343,3.611c0,.043,0,.083-.007.126.215-.026.434-.056.652-.079V116.1a2.128,2.128,0,0,1,2.138-2.2H35.062a2.09,2.09,0,0,1,2.088,2.2v19.719a17.787,17.787,0,0,1,3.786,1.479c3.674,2.449-.857,2.151-.857,2.151Zm-12.819-20.6a1.09,1.09,0,0,0-1.1-1.1h-2.2a1.09,1.09,0,0,0-1.1,1.1v3.025c0,.612.758,1.1,1.374,1.1h1.923a1.09,1.09,0,0,0,1.1-1.1v-3.025Zm0,7.973a1.09,1.09,0,0,0-1.1-1.1h-2.2a1.09,1.09,0,0,0-1.1,1.1v3.025c0,.612.758,1.1,1.374,1.1h1.923a1.09,1.09,0,0,0,1.1-1.1v-3.025Zm7.146-7.973a1.09,1.09,0,0,0-1.1-1.1h-2.2a1.09,1.09,0,0,0-1.1,1.1v3.025c0,.612.758,1.1,1.374,1.1h1.923a1.09,1.09,0,0,0,1.1-1.1v-3.025Zm0,7.973a1.09,1.09,0,0,0-1.1-1.1h-2.2a1.09,1.09,0,0,0-1.1,1.1v3.025c0,.612.758,1.1,1.374,1.1h1.923a1.09,1.09,0,0,0,1.1-1.1v-3.025Z" transform="translate(-9.939 -113.9)"/>
</svg>
