<svg xmlns="http://www.w3.org/2000/svg" width="22.803" height="22.807" viewBox="0 0 22.803 22.807">
  <path id="Path_13246" data-name="Path 13246" d="M4.6,10.725a.353.353,0,1,1,.705,0v6.888c0,.1,0,.217.007.33A16.413,16.413,0,0,1,5.2,20.817c-.015.1-.026.2-.039.3-.071.618-.158,1.372-.744,1.654a.352.352,0,0,1-.154.035H3.5a.345.345,0,0,1-.089-.011,1.065,1.065,0,0,1-.592-.362,2.352,2.352,0,0,1-.407-.731.357.357,0,0,1-.02-.1h0q-.081-1.1-.1-2.235c-.015-.744-.007-1.492.024-2.239h0v-7.7A3.03,3.03,0,0,1,.666,8.153,5.148,5.148,0,0,1,0,5.591V5.578A8.612,8.612,0,0,1,.183,3.391,4.925,4.925,0,0,1,.916,1.676,4.022,4.022,0,0,1,2.184.484,3.256,3.256,0,0,1,3.948.033,3.21,3.21,0,0,1,5.672.618,3.968,3.968,0,0,1,6.821,1.893a6.687,6.687,0,0,1,.735,3.07,6.98,6.98,0,0,1-.382,2.524A3.509,3.509,0,0,1,5.7,9.374a2.981,2.981,0,0,1-1.468.394.352.352,0,1,1-.013-.7,2.3,2.3,0,0,0,1.129-.3A2.829,2.829,0,0,0,6.511,7.245a6.269,6.269,0,0,0,.342-2.268,5.991,5.991,0,0,0-.642-2.73A3.273,3.273,0,0,0,5.267,1.2,2.509,2.509,0,0,0,3.92.737a2.575,2.575,0,0,0-1.385.356,3.313,3.313,0,0,0-1.041.984A4.242,4.242,0,0,0,.868,3.545,8.146,8.146,0,0,0,.7,5.558v.006a4.482,4.482,0,0,0,.561,2.214A2.411,2.411,0,0,0,2.745,8.821a.353.353,0,0,1,.278.345v7.967h0v.013Q2.974,18.262,3,19.36c.013.707.048,1.424.1,2.146a1.573,1.573,0,0,0,.258.464.408.408,0,0,0,.184.132h.627a1.99,1.99,0,0,0,.3-1.064c.013-.119.026-.23.041-.325a15.934,15.934,0,0,0,.1-2.755c0-.108,0-.213-.007-.33a.249.249,0,0,1,0-.037V10.725Zm15.485,2.846a.353.353,0,1,1,0-.705h2v-6a8.317,8.317,0,0,0-1.132-3.985,5.266,5.266,0,0,0-2-1.841V20.734c0,.117,0,.249,0,.34.017.407.089.891.466.876h.013v0h.793c.4-.056.388-.536.381-.956,0-.106,0-.2,0-.2V14.811a.353.353,0,1,1,.705,0v5.977c0,.134,0,.163,0,.193.013.722.028,1.552-1.008,1.667a.41.41,0,0,1-.069.007h-.8v0c-.978.032-1.155-.83-1.184-1.554-.006-.161-.006-.271-.006-.368V.483h0a.336.336,0,0,1,.03-.139A.353.353,0,0,1,18.74.158a6.078,6.078,0,0,1,2.808,2.35,9,9,0,0,1,1.244,4.316.361.361,0,0,1,0,.046v6.348a.353.353,0,0,1-.353.353ZM11.822.368a.353.353,0,0,1,.705,0v5.97a.353.353,0,0,1-.705,0V.368Zm1.491,0a.353.353,0,1,1,.705,0v5.97a.353.353,0,1,1-.705,0V.368Zm1.548,0a.353.353,0,0,1,.705,0V6.866a.361.361,0,0,1,0,.045A3.757,3.757,0,0,1,14.925,9a2.085,2.085,0,0,1-1.691.813.352.352,0,0,1-.02-.7,1.414,1.414,0,0,0,1.149-.538,3.083,3.083,0,0,0,.494-1.7V.371ZM10.316.353a.353.353,0,0,1,.705,0v6.5A3.557,3.557,0,0,0,11.308,8.2a1.073,1.073,0,0,0,.629.592.354.354,0,0,1,.243.336h0V21.365a.274.274,0,0,1,0,.039.712.712,0,0,0,.085.483.477.477,0,0,0,.334.154h.78a.52.52,0,0,0,.249-.2,1.176,1.176,0,0,0,.167-.5V10.9a.353.353,0,0,1,.705,0V21.365h0a.328.328,0,0,1,0,.043,1.867,1.867,0,0,1-.291.839,1.192,1.192,0,0,1-.642.475.368.368,0,0,1-.136.028h-.846a.274.274,0,0,1-.039,0,1.157,1.157,0,0,1-.839-.431,1.375,1.375,0,0,1-.23-.962V9.365a1.79,1.79,0,0,1-.8-.854,4.271,4.271,0,0,1-.355-1.619.361.361,0,0,1,0-.045V.353Z" transform="translate(0.008)" fill="#5f031a"/>
</svg>
