<svg xmlns="http://www.w3.org/2000/svg" width="20.55" height="19.314" viewBox="0 0 20.55 19.314">
  <path id="Path_13885" data-name="Path 13885" d="M19.42-470.323a1.952,1.952,0,0,0-1.1,1,1.434,1.434,0,0,0-.152.777,1.447,1.447,0,0,0,.142.741,1.835,1.835,0,0,0,1.245,1.061l.279.068-.515.084a4.179,4.179,0,0,0-1.87.877c-.825.667-1.3,1.455-2.091,3.42-.384.961-.415,1.235-.189,1.581a1.084,1.084,0,0,0,1.734.005,1.1,1.1,0,0,0,.163-.394.487.487,0,0,1,.095-.231c.037-.021.042.026.021.142a4.6,4.6,0,0,0-.037.662v.494H13.662a28.541,28.541,0,0,0-3.573.068c-.084.058-.089.158-.079.825l.016.762.7.016.694.016v3.294a28.444,28.444,0,0,0,.063,3.362c.089.089,17.017.089,17.107,0a28.451,28.451,0,0,0,.063-3.362v-3.294l.7-.016.694-.016.016-.762c.01-.667.005-.767-.079-.825a28.544,28.544,0,0,0-3.573-.068H22.924l.005-.646.005-.641.084.263c.131.389.2.483.473.641a1.045,1.045,0,0,0,1.539-.573c.073-.279.042-.389-.384-1.461-.9-2.254-1.571-3.147-2.853-3.788a3,3,0,0,0-1.046-.352l-.515-.084.278-.068a1.835,1.835,0,0,0,1.245-1.061,1.347,1.347,0,0,0,.137-.741,1.693,1.693,0,0,0-.609-1.392A1.823,1.823,0,0,0,19.42-470.323Zm1.277.457a1.518,1.518,0,0,1,.793,1.429,1.463,1.463,0,0,1-.846,1.219,1.594,1.594,0,0,1-1.224,0,1.456,1.456,0,0,1-.841-1.214,1.493,1.493,0,0,1,1.035-1.534A2.011,2.011,0,0,1,20.7-469.866Zm-1.219,3.977c.079.252.11.3.247.326a.581.581,0,0,1,.152.042c0,.01-.131.73-.289,1.608s-.289,1.639-.289,1.692a3.009,3.009,0,0,0,.741.983,2.664,2.664,0,0,0,.73-1.009c0-.1-.452-2.679-.557-3.152-.026-.121-.01-.142.121-.158s.163-.058.247-.3c.058-.158.11-.3.121-.31a2.948,2.948,0,0,1,1.014.347,4.852,4.852,0,0,1,2.059,2.37,21.28,21.28,0,0,1,.883,2.243.641.641,0,0,1-.762.531c-.326-.063-.4-.2-.709-1.3a10.828,10.828,0,0,0-.352-1.135c-.084-.137-.252-.152-.32-.032a15.7,15.7,0,0,0-.021,1.6l.026,1.518H17.55l.021-1.555c.021-1.44.016-1.566-.068-1.618-.194-.121-.268.021-.6,1.177-.257.9-.347,1.135-.447,1.214a.633.633,0,0,1-1-.263c-.053-.179-.032-.257.315-1.124a12.518,12.518,0,0,1,1.088-2.249,5.036,5.036,0,0,1,1.329-1.277,4.037,4.037,0,0,1,1.114-.452C19.357-466.177,19.415-466.078,19.478-465.888Zm.872-.268A.726.726,0,0,1,20.3-466c-.042.116-.084.137-.263.137s-.221-.021-.263-.137a.726.726,0,0,1-.053-.158,1.266,1.266,0,0,1,.315-.021A1.268,1.268,0,0,1,20.35-466.156Zm-.079,2.774.2,1.14-.137.2c-.231.326-.3.4-.315.378-.01-.01-.11-.147-.221-.3l-.2-.284.2-1.109c.184-1.046.226-1.224.263-1.182C20.066-464.528,20.166-464.007,20.271-463.382Zm9.42,4.2.016.41H10.368v-.384a1.365,1.365,0,0,1,.037-.42c.016-.021,4.361-.032,9.651-.026l9.62.016Zm-1.46,3.982v3.152H11.839v-6.3H28.231Z" transform="translate(-9.76 470.684)" fill="#741e33" stroke="#5f031a" stroke-width="0.5"/>
</svg>
