<svg xmlns="http://www.w3.org/2000/svg" width="15.272" height="15.4" viewBox="0 0 15.272 15.4">
  <path id="Path_13891" data-name="Path 13891" d="M9.035,2.346h5.31a.933.933,0,0,1,.927.927v11.2a.933.933,0,0,1-.927.927H3.068a.933.933,0,0,1-.927-.927V8.956a5.156,5.156,0,0,0,.968.287v2.542h0C4.727,10.239,5.8,9.476,7.4,8.171l.019.019s0,.008.008.008l3.361,3.977.514-3.163a.373.373,0,0,1,.429-.307.382.382,0,0,1,.2.1L14.3,11.283V3.5a.16.16,0,0,0-.055-.124.183.183,0,0,0-.124-.055H9.28a5.239,5.239,0,0,0-.246-.973ZM4.109,0A4.109,4.109,0,1,1,0,4.109,4.109,4.109,0,0,1,4.109,0ZM1.926,4.182H3.31V6.157H4.87V4.182H6.294L4.111,2.06,1.926,4.182Zm9.888.287a1.344,1.344,0,1,1-.951.394,1.342,1.342,0,0,1,.951-.394Z" fill-rule="evenodd"/>
</svg>
