<svg xmlns="http://www.w3.org/2000/svg" width="7.34" height="2.732" viewBox="0 0 7.34 2.732">
  <path id="Path_13862" data-name="Path 13862" d="M5.507,8.357h.459a.082.082,0,0,0,.082-.082V8.01a.327.327,0,0,1,.326-.326H8.361a.327.327,0,0,1,.326.326v.265a.082.082,0,0,0,.082.082h.489a.082.082,0,0,0,.082-.082V8.01a.327.327,0,0,1,.326-.326h1.988a.327.327,0,0,1,.326.326v.265a.082.082,0,0,0,.082.082h.459a.164.164,0,0,0,.163-.163V6.277a.654.654,0,0,0-.652-.652H6a.654.654,0,0,0-.652.652V8.194A.164.164,0,0,0,5.507,8.357Z" transform="translate(-5.344 -5.625)"/>
</svg>
