<svg id="tap-wash-basin" xmlns="http://www.w3.org/2000/svg" width="31.642" height="22.248" viewBox="0 0 31.642 22.248">
  <path id="Path_13251" data-name="Path 13251" d="M6.5,15.037l-.057-.51L20.968.614A3.384,3.384,0,0,0,17.406.393L6.61,8.239h-1V6.709H1.962v1.7c-2.523,1.033-2.717,5.438,0,6.631Zm15.56-4.11c.245,1.136.978,1.7.978,2.269s-.245,1.136-.978,1.136-.978-.566-.978-1.136.734-1.133.978-2.269Zm-.538-5.248c.245,1.233.978,1.849.978,2.464s-.245,1.233-.978,1.233-.978-.615-.978-1.233.734-1.233.978-2.464Zm-3.342-.917L21,2.213l1.074,1.439-2.84,2.531L18.179,4.763ZM31.638,16.412a6.241,6.241,0,0,1-6.211,5.835H6.29A6.241,6.241,0,0,1,.08,16.412ZM3.01,2.875H4.465A1.343,1.343,0,0,1,5.8,4.214V6.068H1.658V4.227A1.355,1.355,0,0,1,3.01,2.875Z" transform="translate(0.004 0.001)" fill="#5f031a" fill-rule="evenodd"/>
</svg>
