<svg xmlns="http://www.w3.org/2000/svg" width="24.778" height="17.422" viewBox="0 0 24.778 17.422">
  <g id="tap-wash-basin" transform="translate(0.004 0.001)">
    <path id="Path_13251" data-name="Path 13251" d="M5.088,11.775l-.044-.4L16.418.481A2.65,2.65,0,0,0,13.63.307L5.175,6.451H4.391v-1.2H1.535V6.582a2.959,2.959,0,0,0,0,5.192ZM17.273,8.556c.192.889.766,1.333.766,1.776s-.192.889-.766.889-.766-.444-.766-.889.575-.887.766-1.776Zm-.421-4.109c.192.966.766,1.448.766,1.93s-.192.966-.766.966-.766-.482-.766-.966.575-.966.766-1.93Zm-2.617-.718,2.208-2,.841,1.127L15.059,4.842l-.825-1.113Zm10.54,9.122a4.887,4.887,0,0,1-4.864,4.569H4.925A4.887,4.887,0,0,1,.061,12.851ZM2.356,2.251H3.5A1.052,1.052,0,0,1,4.544,3.3V4.752H1.3V3.31A1.061,1.061,0,0,1,2.356,2.251Z" transform="translate(0 0)" fill="#5f031a" fill-rule="evenodd"/>
  </g>
</svg>
