<svg xmlns="http://www.w3.org/2000/svg" width="21.194" height="22" viewBox="0 0 21.194 22">
  <g id="_5603e306b851dc3224b0a959a44bbcdc" data-name="5603e306b851dc3224b0a959a44bbcdc" transform="translate(0)">
    <g id="Group_16846" data-name="Group 16846">
      <path id="Path_13881" data-name="Path 13881" d="M652.352-501.934a2.487,2.487,0,0,0-1.152.658,2.3,2.3,0,0,0-.7,1.7,2.276,2.276,0,0,0,.718,1.719,2.25,2.25,0,0,0,1.706.709,2.255,2.255,0,0,0,1.693-.7,2.346,2.346,0,0,0,.645-1.079,3.311,3.311,0,0,0,0-1.268A2.455,2.455,0,0,0,652.352-501.934Z" transform="translate(-636.524 501.999)" fill="#741e33"/>
      <path id="Path_13882" data-name="Path 13882" d="M43.119-245.236a2.536,2.536,0,0,0-1.014.339c-.215.133-2.841,2.187-3.1,2.428l-.12.112v1.74c0,1.031.022,1.822.047,1.938a1.2,1.2,0,0,0,.146.348l.1.159-2.093,1.912L35-234.346l-.064-.241c-.1-.352-.142-.417-.666-1-.812-.9-1.006-1.031-1.551-1.031-.464,0-.58.09-2.66,2-2.132,1.955-2.106,1.921-2.106,2.514a1.046,1.046,0,0,0,.1.529,8.537,8.537,0,0,0,1.47,1.62c.022,0,.039-.056.039-.12a1.838,1.838,0,0,1,.236-.735,1.408,1.408,0,0,1,2.321-.06.65.65,0,0,0,.159.18c.013,0,1.775-1.6,3.911-3.554s3.949-3.606,4.027-3.661c.67-.516.649-.434.649-2.149v-1.4l.344-.271a4.114,4.114,0,0,1,.365-.266c.013,0,.022,1.156.022,2.574v2.57l-.778,3.219c-.838,3.481-.829,3.442-.649,3.855a1.485,1.485,0,0,0,.266.37,1.209,1.209,0,0,0,1.943-.37c.06-.138.434-1.616.834-3.288s.735-3.043.748-3.043.361,1.405.774,3.124c.829,3.455.825,3.434,1.216,3.7a1.147,1.147,0,0,0,.812.215,1.208,1.208,0,0,0,1.1-1.1,23.659,23.659,0,0,0-.756-3.472l-.778-3.232v-3.257a28.036,28.036,0,0,0-.064-3.515,2.222,2.222,0,0,0-1.719-1.59A4.59,4.59,0,0,0,43.119-245.236Z" transform="translate(-27.949 251.051)" fill="#741e33"/>
      <path id="Path_13883" data-name="Path 13883" d="M884.62-59.325v1.375l.228.2a.972.972,0,0,0,.748.335.922.922,0,0,0,.752-.344.941.941,0,0,0,.12-1.074,20.889,20.889,0,0,0-1.642-1.676l-.206-.189Z" transform="translate(-865.388 70.607)" fill="#741e33"/>
      <path id="Path_13884" data-name="Path 13884" d="M119.877,390.048a.944.944,0,0,0-.584.782,1.007,1.007,0,0,0,.971,1.1,1.2,1.2,0,0,0,.718-.305.978.978,0,0,0-.03-1.371A.919.919,0,0,0,119.877,390.048Z" transform="translate(-117.234 -369.935)" fill="#741e33"/>
    </g>
  </g>
</svg>
